<mxfile host="app.diagrams.net" agent="Mozilla/5.0 (Windows NT 10.0; Win64; x64) AppleWebKit/537.36 (KHTML, like Gecko) Chrome/131.0.0.0 Safari/537.36" version="25.0.3">
  <diagram name="Page-1" id="xhf_rqMSdTx6UykfWGdO">
    <mxGraphModel dx="1320" dy="702" grid="1" gridSize="10" guides="1" tooltips="1" connect="1" arrows="1" fold="1" page="1" pageScale="1" pageWidth="827" pageHeight="1169" math="0" shadow="0">
      <root>
        <mxCell id="0" />
        <mxCell id="1" parent="0" />
        <mxCell id="IkYJzsR95ull9F0BhxLU-1" value="+Trail_ID(PK)&lt;div&gt;+Trail_name&lt;/div&gt;&lt;div&gt;+Trail_summary&lt;/div&gt;&lt;div&gt;+Trail_description&lt;/div&gt;&lt;div&gt;+Difficulty&lt;/div&gt;&lt;div&gt;+Location&lt;/div&gt;&lt;div&gt;+Length&lt;/div&gt;&lt;div&gt;+Elevation_gain&lt;/div&gt;&lt;div&gt;+Route_type&lt;/div&gt;" style="rounded=0;whiteSpace=wrap;html=1;align=left;" parent="1" vertex="1">
          <mxGeometry x="120" y="200" width="120" height="190" as="geometry" />
        </mxCell>
        <mxCell id="0bSs18f_okDynpe9MkN2-2" value="Trail" style="rounded=0;whiteSpace=wrap;html=1;" vertex="1" parent="1">
          <mxGeometry x="120" y="170" width="120" height="30" as="geometry" />
        </mxCell>
        <mxCell id="0bSs18f_okDynpe9MkN2-3" value="+Trail_ID(PK)&lt;div&gt;+Trail_feature_ID(PK&lt;span style=&quot;background-color: initial;&quot;&gt;)&lt;/span&gt;&lt;/div&gt;" style="rounded=0;whiteSpace=wrap;html=1;align=left;" vertex="1" parent="1">
          <mxGeometry x="354" y="200" width="120" height="190" as="geometry" />
        </mxCell>
        <mxCell id="0bSs18f_okDynpe9MkN2-4" value="Trail_Feature" style="rounded=0;whiteSpace=wrap;html=1;" vertex="1" parent="1">
          <mxGeometry x="354" y="170" width="120" height="30" as="geometry" />
        </mxCell>
        <mxCell id="0bSs18f_okDynpe9MkN2-5" value="&lt;div&gt;+Trail_feature_ID(PK&lt;span style=&quot;background-color: initial;&quot;&gt;)&lt;/span&gt;&lt;/div&gt;&lt;div&gt;&lt;span style=&quot;background-color: initial;&quot;&gt;+Trail_feature&lt;/span&gt;&lt;/div&gt;" style="rounded=0;whiteSpace=wrap;html=1;align=left;" vertex="1" parent="1">
          <mxGeometry x="590" y="200" width="120" height="190" as="geometry" />
        </mxCell>
        <mxCell id="0bSs18f_okDynpe9MkN2-6" value="Feature" style="rounded=0;whiteSpace=wrap;html=1;" vertex="1" parent="1">
          <mxGeometry x="590" y="170" width="120" height="30" as="geometry" />
        </mxCell>
        <mxCell id="0bSs18f_okDynpe9MkN2-7" value="Link Entity" style="text;html=1;align=center;verticalAlign=middle;whiteSpace=wrap;rounded=0;" vertex="1" parent="1">
          <mxGeometry x="384" y="130" width="60" height="30" as="geometry" />
        </mxCell>
        <mxCell id="0bSs18f_okDynpe9MkN2-9" value="" style="endArrow=none;html=1;rounded=0;exitX=1;exitY=0.5;exitDx=0;exitDy=0;entryX=0;entryY=0.5;entryDx=0;entryDy=0;" edge="1" parent="1" source="IkYJzsR95ull9F0BhxLU-1" target="0bSs18f_okDynpe9MkN2-3">
          <mxGeometry width="50" height="50" relative="1" as="geometry">
            <mxPoint x="370" y="420" as="sourcePoint" />
            <mxPoint x="420" y="370" as="targetPoint" />
          </mxGeometry>
        </mxCell>
        <mxCell id="0bSs18f_okDynpe9MkN2-10" value="" style="endArrow=none;html=1;rounded=0;entryX=0;entryY=0.5;entryDx=0;entryDy=0;exitX=1;exitY=0.5;exitDx=0;exitDy=0;" edge="1" parent="1" source="0bSs18f_okDynpe9MkN2-3" target="0bSs18f_okDynpe9MkN2-5">
          <mxGeometry width="50" height="50" relative="1" as="geometry">
            <mxPoint x="370" y="420" as="sourcePoint" />
            <mxPoint x="420" y="370" as="targetPoint" />
          </mxGeometry>
        </mxCell>
        <mxCell id="0bSs18f_okDynpe9MkN2-13" value="" style="endArrow=none;html=1;rounded=0;entryX=-0.01;entryY=0.373;entryDx=0;entryDy=0;entryPerimeter=0;" edge="1" parent="1" target="0bSs18f_okDynpe9MkN2-3">
          <mxGeometry width="50" height="50" relative="1" as="geometry">
            <mxPoint x="300" y="295" as="sourcePoint" />
            <mxPoint x="420" y="370" as="targetPoint" />
          </mxGeometry>
        </mxCell>
        <mxCell id="0bSs18f_okDynpe9MkN2-15" value="" style="endArrow=none;html=1;rounded=0;entryX=0.004;entryY=0.6;entryDx=0;entryDy=0;entryPerimeter=0;" edge="1" parent="1" target="0bSs18f_okDynpe9MkN2-3">
          <mxGeometry width="50" height="50" relative="1" as="geometry">
            <mxPoint x="300" y="295" as="sourcePoint" />
            <mxPoint x="363" y="281" as="targetPoint" />
          </mxGeometry>
        </mxCell>
      </root>
    </mxGraphModel>
  </diagram>
</mxfile>
